# xmcd CD database file
#
# Track frame offsets:
#	150
#	20024
#	39459
#	54755
#	73994
#	89203
#	107751
#	136391
#	152520
#	169915
#	187838
#	205751
#	223642
#	244528
#	265861
#
# Disc length: 3790 seconds
#
# Revision: 3
# Processed by: cddbd v1.5.2PL0 Copyright (c) Steve Scherf et al.
# Submitted via: CDex 1.70beta2
#
DISCID=d20ecc0f
DTITLE=BONNIE PINK - ONE
DYEAR=2009
DGENRE=JPop
TTITLE0=Won't Let You Go
TTITLE1=フューシャ フューシャ フューシャ
TTITLE2=Princess Incognito
TTITLE3=Joy
TTITLE4=妄想LOVER
TTITLE5=鐘を鳴らして
TTITLE6=One Last Time
TTITLE7=Rock You Till the Dawn
TTITLE8=Fed Up feat. Craig David
TTITLE9=PLAY and PAUSE
TTITLE10=秘密
TTITLE11=Try Me Out
TTITLE12=Happy Ending
TTITLE13=Get On the Bus
TTITLE14=Ring A Bell
EXTD=YEAR: 2009
EXTT0=
EXTT1=
EXTT2=
EXTT3=
EXTT4=
EXTT5=
EXTT6=
EXTT7=
EXTT8=
EXTT9=
EXTT10=
EXTT11=
EXTT12=
EXTT13=
EXTT14=
PLAYORDER=
